# xmcd
#
# Track frame offsets: 
#        182
#        17835
#        34967
#        52325
#        66967
#        82800
#        96987
#        110975
#        127312
#        141077
#        154132
#        168377
#        182350
#        199040
#        215705
#        232410
#        254822
#        269007
#        285245
#        298687
#
# Disc length: 4183 seconds
#
# Revision: 1
# Processed by: cddbd v1.5.2PL0 Copyright (c) Steve Scherf et al.
# Submitted via: ExactAudioCopy v0.99pb5
#
DISCID=49105514
DTITLE=Various Artist - Die deutsche Schlagerparade - 1999-1 - CD 1
DYEAR=1999
DGENRE=Schlager
TTITLE0=Claudia Jung and Nino de Angelo - Hand in Hand
TTITLE1=Michelle - Der letzte Akkord
TTITLE2=Maria Bonelli - Love To Love
TTITLE3=Vicky Leandros - Eine große Liebe
TTITLE4=Olaf Berger - Es ist ein Wahnsinn, dich nicht zu lieben (Maria
TTITLE4=)
TTITLE5=Rosanna Rocci - Amore, amore
TTITLE6=Ibo - Gracias amor
TTITLE7=Andreas Martin - Allein mit dir
TTITLE8=Vivian Lindt - Wenn du dich traust
TTITLE9=Ana Gonzalez - Ein verrückter Sommer
TTITLE10=Nicole - Halt dich fest
TTITLE11=Tom Astor - Zusammen gewonnen, zusammen verlor'n
TTITLE12=Patrick Lindner - Bleib bei mir
TTITLE13=Hanne Haller and Mark Janicello - Du bist das Herz der Welt für
TTITLE13=mich
TTITLE14=Die 3 jungen Tenöre - Cara mia, ja
TTITLE15=Wolfgang Ziegler and Ute Freudenberg - Es gibt für mich kein fr
TTITLE15=emdes Leid
TTITLE16=Julian Frank - Wahnsinns Gefühl
TTITLE17=Maira - Wenn du ein Traum bist
TTITLE18=Margarita - Das kann doch nicht wahr sein
TTITLE19=Peter Sebastian - Wunderbar
EXTD=YEAR: 1999
EXTT0=
EXTT1=
EXTT2=
EXTT3=
EXTT4=
EXTT5=
EXTT6=
EXTT7=
EXTT8=
EXTT9=
EXTT10=
EXTT11=
EXTT12=
EXTT13=
EXTT14=
EXTT15=
EXTT16=
EXTT17=
EXTT18=
EXTT19=
PLAYORDER=
